<?xml version="1.0" encoding="utf-8"?>
<!-- Generator: Adobe Illustrator 16.0.5, SVG Export Plug-In . SVG Version: 6.00 Build 0)  -->
<!DOCTYPE svg PUBLIC "-//W3C//DTD SVG 1.1//EN" "http://www.w3.org/Graphics/SVG/1.1/DTD/svg11.dtd">
<svg version="1.1" id="Layer_1" xmlns="http://www.w3.org/2000/svg" xmlns:xlink="http://www.w3.org/1999/xlink" x="0px" y="0px"
	 width="34px" height="34px" viewBox="0 0 34 34" enable-background="new 0 0 34 34" xml:space="preserve">
<g>
	<path fill="#0D9045" d="M0.001,16.879c0-4.956-0.002-9.912,0.001-14.869c0-1.567,0.435-2.009,1.985-2.01
		C12.018,0,22.048,0,32.078,0.001c1.462,0,1.92,0.468,1.92,1.956c0.003,10.03,0.003,20.061,0,30.091
		c-0.001,1.483-0.459,1.949-1.926,1.95C22.042,34,12.012,34,1.981,33.998c-1.547,0-1.979-0.441-1.98-2.015
		C-0.001,26.949,0.001,21.915,0.001,16.879z M19.248,12.13c-2.465-1.976-5.313-1.636-7.357,0.904
		c-1.169,1.453-1.818,3.121-1.918,4.977c-0.232,4.402,3.164,6.589,7.079,4.579c0.227-0.115,0.407-0.399,0.681-0.03
		c0.941,1.271,2.292,0.928,3.465,0.662c3.255-0.739,5.118-3.046,5.854-6.13c0.815-3.419-0.092-6.465-2.83-8.826
		c-3.95-3.408-14.009-3.379-17.393,4.17c-0.994,2.217-1.397,4.518-1.108,6.895c0.511,4.178,2.617,7.186,6.758,8.496
		c3.179,1.005,6.415,1.079,9.621,0.178c2.492-0.699,4.532-2.071,5.745-4.511c-1.98-0.279-2.094-0.253-3.401,0.867
		c-0.759,0.648-1.621,1.117-2.563,1.41c-3.048,0.955-6.097,0.925-9.11-0.154c-1.356-0.485-2.458-1.327-3.366-2.472
		C6.14,19.036,7.745,10.093,14.665,8.573c1.659-0.364,3.324-0.401,5.011-0.089c2.621,0.484,4.842,2.464,5.347,4.858
		c0.56,2.649-0.565,5.549-2.715,6.926c-0.378,0.242-0.805,0.68-1.261,0.416c-0.563-0.325-0.258-0.915-0.158-1.394
		c0.567-2.705,1.147-5.407,1.779-8.371C21.457,11.576,19.833,10.117,19.248,12.13z"/>
	<path fill="#F6FAF7" d="M19.248,12.13c0.585-2.013,2.209-0.554,3.42-1.21c-0.632,2.964-1.212,5.667-1.78,8.371
		c-0.1,0.479-0.404,1.068,0.159,1.394c0.456,0.264,0.883-0.173,1.26-0.415c2.15-1.377,3.275-4.277,2.716-6.927
		c-0.505-2.395-2.726-4.374-5.347-4.858c-1.687-0.313-3.353-0.275-5.011,0.088c-6.92,1.521-8.526,10.463-5.262,14.572
		c0.908,1.144,2.01,1.985,3.366,2.472c3.014,1.079,6.062,1.108,9.11,0.154c0.942-0.294,1.805-0.762,2.563-1.411
		c1.309-1.12,1.421-1.146,3.401-0.866c-1.212,2.439-3.252,3.812-5.745,4.511c-3.205,0.9-6.441,0.826-9.62-0.179
		c-4.142-1.311-6.247-4.318-6.758-8.496c-0.29-2.377,0.114-4.677,1.108-6.895c3.384-7.549,13.442-7.577,17.393-4.169
		c2.738,2.361,3.646,5.408,2.83,8.827c-0.735,3.082-2.599,5.39-5.854,6.129c-1.173,0.266-2.523,0.609-3.466-0.661
		c-0.272-0.369-0.454-0.085-0.681,0.029c-3.914,2.011-7.311-0.177-7.078-4.579c0.099-1.854,0.749-3.523,1.918-4.977
		C13.935,10.494,16.783,10.154,19.248,12.13z M12.992,18.15c-0.044,1.661,0.519,2.683,1.569,3.015
		c1.028,0.322,2.231-0.299,2.981-1.576c0.687-1.171,1.022-2.459,1.092-3.803c0.073-1.4-0.533-2.371-1.6-2.713
		c-0.898-0.289-2.095,0.221-2.825,1.236C13.354,15.499,13.165,16.899,12.992,18.15z"/>
	<path fill="#0C9146" d="M12.992,18.15c0.173-1.251,0.362-2.651,1.218-3.841c0.73-1.016,1.927-1.525,2.825-1.236
		c1.066,0.342,1.673,1.313,1.599,2.713c-0.069,1.344-0.404,2.632-1.092,3.803c-0.749,1.277-1.952,1.898-2.98,1.576
		C13.511,20.833,12.948,19.812,12.992,18.15z"/>
</g>
</svg>
