<?xml version="1.0" encoding="utf-8"?>
<!-- Generator: Adobe Illustrator 16.0.5, SVG Export Plug-In . SVG Version: 6.00 Build 0)  -->
<!DOCTYPE svg PUBLIC "-//W3C//DTD SVG 1.1//EN" "http://www.w3.org/Graphics/SVG/1.1/DTD/svg11.dtd">
<svg version="1.1" id="Layer_1" xmlns="http://www.w3.org/2000/svg" xmlns:xlink="http://www.w3.org/1999/xlink" x="0px" y="0px"
	 width="34px" height="34px" viewBox="0 0 34 34" enable-background="new 0 0 34 34" xml:space="preserve">
<g>
	<path fill="#FFFFFF" d="M23.353,32.996c0.052-3.773,0.041-7.548,0.006-11.321c-0.006-0.716,0.167-0.977,0.912-0.924
		c0.939,0.066,1.889-0.023,2.83,0.03c0.609,0.034,0.825-0.2,0.89-0.769c0.137-1.208,0.292-2.417,0.494-3.616
		c0.09-0.537-0.152-0.59-0.568-0.587c-1.219,0.01-2.439-0.046-3.656,0.021c-0.762,0.042-0.942-0.233-0.898-0.936
		c0.059-0.94-0.014-1.888,0.034-2.829c0.071-1.404,0.736-2.061,2.15-2.136c0.862-0.045,1.731-0.039,2.596-0.007
		c0.516,0.018,0.686-0.164,0.672-0.676c-0.03-1.139-0.019-2.28-0.004-3.419c0.005-0.407-0.071-0.633-0.556-0.688
		c-1.569-0.177-3.146-0.329-4.705-0.079c-3.24,0.519-5.19,2.812-5.347,6.214c-0.055,1.217-0.067,2.44-0.002,3.655
		c0.04,0.765-0.243,0.937-0.94,0.896c-0.94-0.055-1.888,0.013-2.831-0.023c-0.364-0.014-0.577,0.058-0.676,0.27v4.438
		c0.104,0.219,0.328,0.278,0.688,0.267c1.021-0.032,2.046,0.013,3.067-0.018c0.505-0.014,0.685,0.144,0.681,0.666
		c-0.018,3.971-0.018,7.941,0,11.912c0.003,0.456-0.15,0.607-0.496,0.643h6.29C23.531,33.916,23.343,33.682,23.353,32.996z"/>
	<path fill="#3C579C" d="M33.997,2.131c-0.001-1.373-0.644-2.12-1.901-2.123c-10.069-0.012-20.138-0.011-30.208,0
		c-1.168,0.002-1.879,0.725-1.88,1.903c-0.01,10.064-0.01,20.127,0,30.193c0.001,1.112,0.711,1.864,1.793,1.866
		c5.231,0.021,10.463,0.006,15.694,0.019c0.072,0,0.137-0.004,0.198-0.01c0.345-0.035,0.499-0.187,0.497-0.643
		c-0.019-3.971-0.019-7.941-0.001-11.912c0.003-0.522-0.176-0.68-0.681-0.666c-1.021,0.03-2.045-0.015-3.067,0.018
		c-0.361,0.012-0.584-0.048-0.688-0.267c-0.051-0.107-0.076-0.251-0.069-0.444c0.041-1.178,0.039-2.359,0-3.537
		c-0.006-0.198,0.017-0.345,0.069-0.456c0.1-0.212,0.312-0.284,0.676-0.27c0.942,0.037,1.891-0.031,2.831,0.023
		c0.698,0.041,0.98-0.131,0.94-0.896c-0.064-1.215-0.053-2.438,0.002-3.655c0.157-3.402,2.106-5.696,5.347-6.214
		c1.559-0.25,3.136-0.098,4.705,0.079c0.483,0.055,0.561,0.281,0.556,0.688c-0.015,1.139-0.026,2.28,0.004,3.419
		c0.014,0.512-0.156,0.694-0.672,0.676c-0.864-0.032-1.733-0.038-2.596,0.007c-1.415,0.075-2.079,0.731-2.15,2.136
		c-0.048,0.941,0.024,1.889-0.034,2.829c-0.044,0.703,0.137,0.979,0.898,0.936c1.217-0.067,2.438-0.011,3.656-0.021
		c0.416-0.003,0.658,0.05,0.568,0.587c-0.202,1.199-0.357,2.408-0.494,3.616c-0.064,0.568-0.28,0.803-0.89,0.769
		c-0.941-0.054-1.891,0.036-2.83-0.03c-0.745-0.053-0.918,0.208-0.912,0.924c0.035,3.773,0.046,7.548-0.006,11.321
		c-0.01,0.686,0.179,0.92,0.631,0.983c0.127,0.018,0.273,0.023,0.445,0.02c0.537-0.01,1.075-0.016,1.612-0.02
		c0.941-0.007,1.882-0.007,2.823-0.004c0.959,0.003,1.92,0.006,2.879,0.005c1.625-0.002,2.254-0.627,2.255-2.248
		c0.002-4.914,0.001-9.828,0.001-14.741C33.999,12.038,34.003,7.084,33.997,2.131z"/>
</g>
</svg>
