<?xml version="1.0" encoding="utf-8"?>
<!-- Generator: Adobe Illustrator 16.0.5, SVG Export Plug-In . SVG Version: 6.00 Build 0)  -->
<!DOCTYPE svg PUBLIC "-//W3C//DTD SVG 1.1//EN" "http://www.w3.org/Graphics/SVG/1.1/DTD/svg11.dtd">
<svg version="1.1" id="Layer_1" xmlns="http://www.w3.org/2000/svg" xmlns:xlink="http://www.w3.org/1999/xlink" x="0px" y="0px"
	 width="34px" height="34px" viewBox="0 0 34 34" enable-background="new 0 0 34 34" xml:space="preserve">
<radialGradient id="SVGID_1_" cx="-260.7788" cy="-282.8516" r="16.9335" gradientTransform="matrix(0 -1.982 -1.8439 0 -512.5521 -480.3867)" gradientUnits="userSpaceOnUse">
	<stop  offset="0" style="stop-color:#FFDD55"/>
	<stop  offset="0.1" style="stop-color:#FFDD55"/>
	<stop  offset="0.5" style="stop-color:#FF543E"/>
	<stop  offset="1" style="stop-color:#C837AB"/>
</radialGradient>
<path fill="url(#SVGID_1_)" d="M16.942,0C9.872,0,7.804,0.007,7.401,0.04C5.95,0.161,5.047,0.39,4.064,0.879
	C3.306,1.256,2.708,1.691,2.118,2.304C1.043,3.419,0.392,4.792,0.156,6.423c-0.114,0.792-0.148,0.953-0.155,4.999
	c-0.002,1.349,0,3.123,0,5.503c0,7.065,0.008,9.132,0.042,9.532c0.117,1.412,0.338,2.301,0.808,3.272
	c0.896,1.86,2.608,3.257,4.624,3.777c0.698,0.18,1.469,0.279,2.459,0.326c0.419,0.019,4.694,0.031,8.972,0.031
	c4.278,0,8.556-0.005,8.965-0.026c1.146-0.054,1.812-0.144,2.548-0.333c2.029-0.523,3.71-1.899,4.624-3.785
	c0.46-0.948,0.693-1.871,0.799-3.209c0.022-0.292,0.032-4.944,0.032-9.59c0-4.646-0.011-9.29-0.033-9.582
	c-0.107-1.36-0.34-2.274-0.814-3.241c-0.39-0.791-0.822-1.382-1.45-1.986c-1.12-1.069-2.49-1.721-4.123-1.956
	C26.661,0.04,26.504,0.007,22.455,0H16.942z"/>
<radialGradient id="SVGID_2_" cx="345.7334" cy="25.6699" r="16.9335" gradientTransform="matrix(0.1739 0.8687 3.5818 -0.7172 -157.7543 -279.4962)" gradientUnits="userSpaceOnUse">
	<stop  offset="0" style="stop-color:#3771C8"/>
	<stop  offset="0.128" style="stop-color:#3771C8"/>
	<stop  offset="1" style="stop-color:#6600FF;stop-opacity:0"/>
</radialGradient>
<path fill="url(#SVGID_2_)" d="M16.942,0C9.872,0,7.804,0.007,7.401,0.04C5.95,0.161,5.047,0.39,4.064,0.879
	C3.306,1.256,2.708,1.691,2.118,2.304C1.043,3.419,0.392,4.792,0.156,6.423c-0.114,0.792-0.148,0.953-0.155,4.999
	c-0.002,1.349,0,3.123,0,5.503c0,7.065,0.008,9.132,0.042,9.532c0.117,1.412,0.338,2.301,0.808,3.272
	c0.896,1.86,2.608,3.257,4.624,3.777c0.698,0.18,1.469,0.279,2.459,0.326c0.419,0.019,4.694,0.031,8.972,0.031
	c4.278,0,8.556-0.005,8.965-0.026c1.146-0.054,1.812-0.144,2.548-0.333c2.029-0.523,3.71-1.899,4.624-3.785
	c0.46-0.948,0.693-1.871,0.799-3.209c0.022-0.292,0.032-4.944,0.032-9.59c0-4.646-0.011-9.29-0.033-9.582
	c-0.107-1.36-0.34-2.274-0.814-3.241c-0.39-0.791-0.822-1.382-1.45-1.986c-1.12-1.069-2.49-1.721-4.123-1.956
	C26.661,0.04,26.504,0.007,22.455,0H16.942z"/>
<path fill="#FFFFFF" d="M16.935,4.429c-3.396,0-3.822,0.015-5.156,0.075c-1.331,0.061-2.24,0.271-3.035,0.581
	C7.921,5.404,7.223,5.831,6.528,6.527C5.833,7.222,5.405,7.92,5.085,8.742c-0.31,0.795-0.521,1.704-0.581,3.034
	c-0.06,1.334-0.075,1.761-0.075,5.157c0,3.396,0.015,3.82,0.076,5.154c0.061,1.331,0.272,2.24,0.581,3.035
	c0.319,0.822,0.747,1.521,1.442,2.215c0.695,0.696,1.393,1.124,2.215,1.444c0.795,0.309,1.704,0.52,3.035,0.58
	c1.334,0.062,1.76,0.076,5.156,0.076c3.397,0,3.822-0.015,5.156-0.076c1.331-0.061,2.241-0.271,3.036-0.58
	c0.822-0.32,1.519-0.748,2.214-1.444c0.695-0.694,1.123-1.393,1.443-2.215c0.308-0.795,0.519-1.704,0.581-3.034
	c0.06-1.334,0.075-1.76,0.075-5.155c0-3.396-0.016-3.822-0.075-5.156c-0.063-1.331-0.273-2.24-0.581-3.035
	c-0.32-0.822-0.748-1.521-1.443-2.215c-0.695-0.696-1.391-1.123-2.214-1.442c-0.798-0.31-1.707-0.521-3.038-0.581
	c-1.334-0.061-1.759-0.075-5.156-0.075H16.935z M15.813,6.682c0.333,0,0.705,0,1.122,0c3.339,0,3.735,0.012,5.054,0.072
	c1.219,0.056,1.881,0.26,2.321,0.431c0.584,0.227,1,0.497,1.438,0.936c0.438,0.438,0.708,0.854,0.936,1.438
	c0.171,0.44,0.375,1.103,0.431,2.321c0.06,1.318,0.073,1.714,0.073,5.052c0,3.337-0.014,3.732-0.073,5.051
	c-0.056,1.22-0.26,1.882-0.431,2.321c-0.227,0.584-0.498,0.999-0.936,1.437s-0.854,0.709-1.438,0.936
	c-0.44,0.172-1.103,0.375-2.321,0.431c-1.318,0.061-1.715,0.073-5.054,0.073s-3.735-0.013-5.053-0.073
	c-1.219-0.056-1.881-0.26-2.322-0.431c-0.583-0.227-1-0.498-1.438-0.936s-0.708-0.854-0.936-1.438
	c-0.171-0.44-0.375-1.102-0.431-2.321c-0.06-1.318-0.072-1.714-0.072-5.054c0-3.339,0.012-3.732,0.072-5.051
	c0.056-1.22,0.259-1.881,0.431-2.322c0.227-0.583,0.498-1,0.936-1.438S8.976,7.407,9.56,7.181C10,7.008,10.663,6.805,11.882,6.749
	c1.153-0.052,1.601-0.067,3.931-0.07V6.682z M23.61,8.758c-0.829,0-1.501,0.672-1.501,1.5c0,0.829,0.672,1.501,1.501,1.501
	c0.828,0,1.5-0.672,1.5-1.501C25.11,9.43,24.438,8.758,23.61,8.758L23.61,8.758z M16.935,10.512c-3.546,0-6.422,2.875-6.422,6.422
	c0,3.546,2.875,6.42,6.422,6.42c3.547,0,6.421-2.874,6.421-6.42C23.355,13.387,20.481,10.512,16.935,10.512L16.935,10.512z
	 M16.935,12.765c2.303,0,4.169,1.866,4.169,4.169c0,2.302-1.866,4.168-4.169,4.168c-2.302,0-4.168-1.866-4.168-4.168
	C12.767,14.631,14.632,12.765,16.935,12.765z"/>
</svg>
