<?xml version="1.0" encoding="utf-8"?>
<!-- Generator: Adobe Illustrator 16.0.5, SVG Export Plug-In . SVG Version: 6.00 Build 0)  -->
<!DOCTYPE svg PUBLIC "-//W3C//DTD SVG 1.1//EN" "http://www.w3.org/Graphics/SVG/1.1/DTD/svg11.dtd">
<svg version="1.1" id="Layer_1" xmlns="http://www.w3.org/2000/svg" xmlns:xlink="http://www.w3.org/1999/xlink" x="0px" y="0px"
	 width="34px" height="34px" viewBox="0 0 34 34" enable-background="new 0 0 34 34" xml:space="preserve">
<g>
	<path fill="#2A2F33" d="M17.004,33.999c-4.995,0-9.989,0.002-14.984-0.001c-1.576,0-2.018-0.433-2.018-1.979
		c-0.003-10.029-0.003-20.059,0-30.088c0-1.468,0.467-1.929,1.949-1.929C11.981,0,22.011,0,32.039,0.001
		c1.489,0,1.958,0.458,1.958,1.92c0.003,10.068,0.004,20.138,0,30.206c0,1.402-0.474,1.868-1.89,1.869
		C27.072,34.002,22.038,33.999,17.004,33.999z M30.214,9.909c-0.757-0.024-1.427,0.504-2.333,0.38
		c0.813-0.756,1.555-1.434,1.875-2.592c-0.953,0.342-1.752,0.628-2.551,0.917c-0.391,0.141-0.728,0.15-1.089-0.153
		c-1.838-1.55-3.893-1.854-6.031-0.765c-2.099,1.07-3.052,2.882-2.876,5.233c0.05,0.68-0.207,0.807-0.804,0.729
		c-3.418-0.445-6.398-1.808-8.926-4.165C7.042,9.084,6.65,8.186,6.132,8.408C5.52,8.67,5.527,9.62,5.463,10.313
		c-0.135,1.476,0.318,2.785,1.232,3.95c0.196,0.251,0.596,0.393,0.529,0.825c-0.634,0.184-1.125-0.322-1.808-0.316
		c0.089,2.625,1.591,4.183,3.782,5.318c-0.585,0-1.169,0-1.898,0c0.869,2.248,2.485,3.365,4.881,3.773
		c-2.327,1.771-4.803,2.31-7.473,2.274c2.567,1.66,5.328,2.169,8.317,2.229c7.929,0.163,14.518-6.568,14.839-14.408
		c0.044-1.075,0.301-1.846,1.165-2.498c0.508-0.384,1.06-0.822,1.201-1.534c0.104-0.012,0.209-0.024,0.084-0.158
		C30.282,9.815,30.248,9.862,30.214,9.909z"/>
	<path fill="#5FA6D8" d="M30.232,9.928c-0.143,0.712-0.694,1.15-1.202,1.534c-0.865,0.651-1.121,1.422-1.165,2.497
		c-0.321,7.84-6.91,14.571-14.839,14.408c-2.989-0.06-5.75-0.569-8.317-2.229c2.67,0.035,5.146-0.504,7.473-2.274
		c-2.396-0.408-4.012-1.525-4.881-3.773c0.729,0,1.314,0,1.898,0c-2.19-1.136-3.692-2.693-3.782-5.318
		c0.682-0.006,1.174,0.5,1.808,0.316c0.067-0.433-0.333-0.574-0.529-0.825c-0.914-1.165-1.368-2.475-1.232-3.95
		C5.527,9.62,5.52,8.67,6.132,8.408c0.518-0.222,0.91,0.676,1.347,1.084c2.528,2.357,5.508,3.72,8.926,4.165
		c0.597,0.078,0.854-0.048,0.804-0.729c-0.176-2.352,0.777-4.163,2.876-5.233c2.138-1.089,4.193-0.785,6.031,0.765
		c0.361,0.303,0.698,0.293,1.089,0.153c0.799-0.289,1.598-0.574,2.551-0.917c-0.32,1.159-1.062,1.836-1.875,2.592
		c0.906,0.124,1.576-0.404,2.333-0.38L30.232,9.928z"/>
	<path fill="#5FA6D8" d="M30.214,9.909c0.034-0.047,0.068-0.094,0.102-0.141c0.125,0.135,0.02,0.146-0.084,0.158
		C30.232,9.928,30.214,9.909,30.214,9.909z"/>
</g>
</svg>
